# xmcd
#
# Track frame offsets:
#	182
#	16465
#	28717
#	43542
#	58547
#	75725
#	87190
#	98497
#	110957
#	124500
#	139710
#	151485
#
# Disc length: 2197 seconds
#
# Revision: 1
# Processed by: cddbd v1.5.1PL2 Copyright (c) Steve Scherf et al.
# Submitted via: audiograbber 1.81.03
#
DISCID=9208930c
DTITLE=DIAFOROI - TA PIO ORAIA LAIKA
DYEAR=1900
DGENRE=Acid
TTITLE0=DIONYSIOU - O laos tragoudi thelei
TTITLE1=SARRIS - Me ta fota nystagmena
TTITLE2=VOSKOPOULOS - Ante stin ygeia tis
TTITLE3=VITALI - Ti ta theleis ta lefta
TTITLE4=DIONYSIOU - O Salonikios
TTITLE5=VOSKOPOULOS - Kardia mou kardia mou
TTITLE6=DIAMANTI - Eheis trellanei kosmo
TTITLE7=SAKATOS - Ego den imouna alitis
TTITLE8=DIONYSIOU - Ena lepto periptera
TTITLE9=VITALI - Vara mou to defi
TTITLE10=PAPADOPOULOU - Erota mou agiatrefte
TTITLE11=SOFOULI - Fotia sta savvatovrada
EXTD=
EXTT0=
EXTT1=
EXTT2=
EXTT3=
EXTT4=
EXTT5=
EXTT6=
EXTT7=
EXTT8=
EXTT9=
EXTT10=
EXTT11=
PLAYORDER=
